<?xml version="1.0" encoding="utf-8"?>
<!-- Generator: Adobe Illustrator 27.8.0, SVG Export Plug-In . SVG Version: 6.00 Build 0)  -->
<svg version="1.1" id="Livello_1" xmlns="http://www.w3.org/2000/svg" xmlns:xlink="http://www.w3.org/1999/xlink" x="0px" y="0px"
	 viewBox="0 0 600 200" style="enable-background:new 0 0 600 200;" xml:space="preserve">
<style type="text/css">
	.st0{fill:#1E1E1E;}
	.st1{fill:#E3DDCD;}
	.st2{fill:#FFFFFF;}
</style>
<g>
	<path class="st0" d="M33,31h62.5c-1.6,0-3.2,0.7-4.8,2c-1.6,1.3-2.9,2.9-4.1,4.7c-1.2,1.8-2.1,3.8-2.8,5.9c-0.7,2.1-1,3.8-1,5.1
		v120.1h3.7c5.7,0,11.7-0.4,17.8-1.2s12-2.3,17.5-4.5c5.5-2.2,10.5-5.2,15-9.1c4.4-3.9,7.8-8.9,9.9-15.1v35.7H46.1V48.4
		c0-1.6-0.3-3.5-1-5.5c-0.7-2.1-1.6-3.9-2.8-5.6c-1.2-1.7-2.6-3.2-4.2-4.4S34.8,31,33,31z"/>
	<path class="st0" d="M238,30c11.2,0,21.8,1.4,31.7,4.2c9.9,2.8,18.5,7.1,25.7,13c7.2,5.9,13,13.3,17.2,22.1
		c4.2,8.9,6.4,19.4,6.4,31.6c0,13-2.4,24.1-7.1,33.3S300.9,151,292.9,157s-17.3,10.3-27.9,13.1c-10.6,2.8-21.7,4.2-33.3,4.2
		c-11.1,0-21.5-1.2-31.3-3.7c-9.8-2.5-18.3-6.4-25.7-11.7c-7.4-5.3-13.2-12.3-17.5-20.8c-4.3-8.5-6.5-19-6.5-31.3
		c0-12.8,2.3-24.1,7-33.6c4.6-9.6,10.9-17.6,18.9-24c7.9-6.4,17.2-11.2,27.8-14.5C214.9,31.6,226.1,30,238,30z M236.6,168.6
		c8.1,0,14.8-2,20.3-6c5.5-4,9.9-9.1,13.2-15.3c3.3-6.2,5.7-12.9,7.2-20.3c1.4-7.4,2.2-14.4,2.2-20.9c0-7-0.8-14.5-2.5-22.7
		c-1.6-8.1-4.3-15.6-7.9-22.5c-3.6-6.9-8.4-12.7-14.3-17.3c-5.9-4.6-13.2-7-21.8-7c-8.1,0-14.8,2.2-20.3,6.5
		c-5.5,4.3-9.8,9.7-13.1,16.2c-3.3,6.5-5.6,13.5-7.1,21.1c-1.4,7.6-2.2,14.7-2.2,21.2c0,7,0.8,14.4,2.5,22.2
		c1.6,7.9,4.3,15.1,8,21.7c3.7,6.6,8.5,12.1,14.4,16.5C220.9,166.4,228.1,168.6,236.6,168.6z"/>
	<path class="st0" d="M329.3,174.5c1.8,0,3.5-0.6,5.1-1.7c1.6-1.2,3.1-2.6,4.3-4.4c1.2-1.8,2.2-3.7,2.9-5.6c0.7-2,1-3.8,1-5.4V48.4
		c0-1.5-0.3-3.3-0.9-5.3c-0.6-2.1-1.5-4-2.7-5.7c-1.2-1.8-2.5-3.3-4-4.5c-1.5-1.2-3.1-1.8-4.9-1.8h61.7c-1.6,0-3.2,0.6-4.7,1.7
		c-1.5,1.2-2.8,2.6-4,4.3c-1.2,1.7-2.1,3.5-2.8,5.4c-0.7,1.9-1,3.6-1,4.9v110.9c0,1.5,0.3,3.2,0.9,5.1c0.6,1.9,1.5,3.7,2.7,5.3
		c1.2,1.6,2.5,3,4,4.1c1.5,1.1,3.1,1.6,4.9,1.6H329.3z M382.8,104.8c5.5-3.3,11.2-7.7,17.2-13.2c6-5.5,11.5-11.7,16.6-18.5
		c5.1-6.8,9.2-13.8,12.4-21.1c3.2-7.3,4.8-14.3,4.8-21h42c-0.7,3.1-3,6.9-6.9,11.4c-3.9,4.4-8.7,9.2-14.5,14.2
		c-5.7,5.1-12,10.2-18.8,15.4c-6.8,5.2-13.4,10-19.8,14.4c-6.4,4.4-12.3,8.2-17.7,11.6c-5.4,3.4-9.5,5.6-12.4,6.9H426
		c9.6,12,19.3,23.7,29.1,35.2c9.8,11.4,19.7,22.9,29.5,34.5h-47.8L382.8,104.8z"/>
	<path class="st0" d="M492.8,31h62.5c-1.8,0-3.4,0.6-4.9,1.8c-1.5,1.2-2.8,2.7-3.9,4.5c-1.1,1.8-1.9,3.7-2.6,5.6
		c-0.6,2-0.9,3.7-0.9,5.2v108.9c0,1.6,0.3,3.5,0.8,5.4c0.5,2,1.4,3.9,2.5,5.6c1.1,1.8,2.4,3.3,3.9,4.5c1.5,1.2,3.2,1.8,5.1,1.8
		h-62.5c1.9,0,3.7-0.6,5.3-1.7c1.6-1.2,3.1-2.6,4.3-4.3c1.2-1.7,2.2-3.6,2.9-5.6c0.7-2,1-3.9,1-5.5V48.2c0-1.6-0.3-3.5-1-5.5
		c-0.7-2.1-1.6-3.9-2.9-5.6c-1.2-1.7-2.7-3.1-4.3-4.3C496.5,31.6,494.8,31,492.8,31z"/>
</g>
</svg>
